# xmcd
#
# Track frame offsets:
#	183
#	16278
#	27133
#	41615
#	54063
#	65988
#	93268
#	109350
#	130665
#	151245
#	168493
#
# Disc length: 2582 seconds
#
# Revision: 0
# Processed by: cddbd v1.5PL3 Copyright (c) Steve Scherf et al.
# Submitted via: dBpowerAMP V4.0
#
DISCID=860a140b
DTITLE=Various Artist - Memphis Blues Caravan Volume II
DYEAR=1994
DGENRE=Blues
TTITLE0=Blues Like Showers Of Rain - Memphis Piano Red
TTITLE1=Crow Jane - Skip James
TTITLE2=Peach Tree Blues - Little Red Holmes
TTITLE3=Satchel Blues - Joe Dobbins
TTITLE4=Uncle Sam Blues - Bukka White
TTITLE5=Furry Lewis' Blues - Furry Lewis
TTITLE6=Mr. Tom Green's Farm - Johnny Shines
TTITLE7=Hard-headed Woman - Joe Willie Wilkins
TTITLE8=Cold Chills - Boy Blue
TTITLE9=New Moonrise Blues - Charlie Booker
TTITLE10=Sweet Little Angel - Big Daddy Rucker
EXTD=
EXTT0=
EXTT1=
EXTT2=
EXTT3=
EXTT4=
EXTT5=
EXTT6=
EXTT7=
EXTT8=
EXTT9=
EXTT10=
PLAYORDER=
